<?xml version="1.0" encoding="utf-8"?>
<!-- Generator: Adobe Illustrator 15.0.0, SVG Export Plug-In . SVG Version: 6.00 Build 0)  -->
<!DOCTYPE svg PUBLIC "-//W3C//DTD SVG 1.1//EN" "http://www.w3.org/Graphics/SVG/1.1/DTD/svg11.dtd">
<svg version="1.1" id="Layer_1" xmlns="http://www.w3.org/2000/svg" xmlns:xlink="http://www.w3.org/1999/xlink" x="0px" y="0px"
	 width="100px" height="100px" viewBox="0 0 100 100" enable-background="new 0 0 100 100" xml:space="preserve">
<g>
	<defs>
		<rect id="SVGID_1_" x="-254.092" y="-335.529" width="612" height="792"/>
	</defs>
	<clipPath id="SVGID_2_">
		<use xlink:href="#SVGID_1_"  overflow="visible"/>
	</clipPath>
	<polyline clip-path="url(#SVGID_2_)" fill="#FFFFFF" points="59.21,313.672 67.516,307.066 70.502,307.203 57.592,322.543 	"/>
	
		<polyline clip-path="url(#SVGID_2_)" fill="none" stroke="#231F20" stroke-width="0.75" stroke-linecap="round" stroke-linejoin="round" stroke-miterlimit="3.864" points="
		59.21,313.672 67.516,307.066 70.502,307.203 57.592,322.543 	"/>
	
		<line clip-path="url(#SVGID_2_)" fill="none" stroke="#231F20" stroke-width="0.75" stroke-miterlimit="3.864" x1="57.592" y1="322.543" x2="59.21" y2="313.672"/>
	
		<line clip-path="url(#SVGID_2_)" fill="none" stroke="#231F20" stroke-width="0.75" stroke-miterlimit="3.864" x1="47.298" y1="322.543" x2="45.679" y2="313.672"/>
	
		<line clip-path="url(#SVGID_2_)" fill-rule="evenodd" clip-rule="evenodd" fill="#FFFFFF" x1="59.348" y1="356.898" x2="59.21" y2="357.605"/>
	
		<line clip-path="url(#SVGID_2_)" fill="none" stroke="#231F20" stroke-width="0.75" stroke-linecap="round" stroke-linejoin="round" stroke-miterlimit="3.864" x1="59.348" y1="356.898" x2="59.21" y2="357.605"/>
	<polygon clip-path="url(#SVGID_2_)" fill="#FFFFFF" points="54.19,362.625 67.516,351 70.503,351.135 59.608,366.098 	"/>
	
		<polygon clip-path="url(#SVGID_2_)" fill="none" stroke="#231F20" stroke-width="0.75" stroke-linecap="round" stroke-linejoin="round" stroke-miterlimit="3.864" points="
		54.19,362.625 67.516,351 70.503,351.135 59.608,366.098 	"/>
	<polyline clip-path="url(#SVGID_2_)" fill-rule="evenodd" clip-rule="evenodd" fill="#FFFFFF" points="57.592,366.477 
		52.444,363.035 46.297,365.475 27.99,343.535 45.679,357.605 59.21,357.605 	"/>
	
		<polyline clip-path="url(#SVGID_2_)" fill="none" stroke="#231F20" stroke-width="0.75" stroke-linecap="round" stroke-linejoin="round" stroke-miterlimit="3.864" points="
		57.592,366.477 52.444,363.035 46.297,365.475 27.99,343.535 45.679,357.605 59.21,357.605 	"/>
	
		<line clip-path="url(#SVGID_2_)" fill="none" stroke="#231F20" stroke-width="0.75" stroke-miterlimit="3.864" x1="45.668" y1="356.875" x2="52.444" y2="358.994"/>
	
		<line clip-path="url(#SVGID_2_)" fill="none" stroke="#231F20" stroke-width="0.75" stroke-miterlimit="3.864" x1="59.221" y1="356.875" x2="52.445" y2="358.994"/>
	
		<line clip-path="url(#SVGID_2_)" fill="none" stroke="#231F20" stroke-width="0.75" stroke-miterlimit="3.864" x1="52.444" y1="358.994" x2="52.444" y2="363.035"/>
	<polygon clip-path="url(#SVGID_2_)" fill-rule="evenodd" clip-rule="evenodd" fill="#FFFFFF" points="71.204,350.205 
		76.18,359.287 67.515,350.998 	"/>
	
		<polygon clip-path="url(#SVGID_2_)" fill="none" stroke="#231F20" stroke-width="0.75" stroke-linecap="round" stroke-linejoin="round" stroke-miterlimit="3.864" points="
		71.204,350.205 76.18,359.287 67.515,350.998 	"/>
	<polyline clip-path="url(#SVGID_2_)" fill-rule="evenodd" clip-rule="evenodd" fill="#FFFFFF" points="70.503,351.137 
		76.18,359.287 67.515,350.998 	"/>
	
		<polyline clip-path="url(#SVGID_2_)" fill="none" stroke="#231F20" stroke-width="0.75" stroke-linecap="round" stroke-linejoin="round" stroke-miterlimit="3.864" points="
		70.503,351.137 76.18,359.287 67.515,350.998 	"/>
	<polygon clip-path="url(#SVGID_2_)" fill-rule="evenodd" clip-rule="evenodd" fill="#FFFFFF" points="45.549,356.896 
		46.488,354.623 67.515,344.77 62.257,355.555 59.348,356.898 	"/>
	
		<polygon clip-path="url(#SVGID_2_)" fill="none" stroke="#231F20" stroke-width="0.75" stroke-linecap="round" stroke-linejoin="round" stroke-miterlimit="3.864" points="
		45.549,356.896 46.488,354.623 67.515,344.77 62.257,355.555 59.348,356.898 	"/>
	
		<line clip-path="url(#SVGID_2_)" fill="none" stroke="#231F20" stroke-width="0.25" stroke-linecap="round" stroke-linejoin="round" stroke-miterlimit="3.864" x1="52.444" y1="357.109" x2="67.514" y2="344.77"/>
	<polyline clip-path="url(#SVGID_2_)" fill="#FFFFFF" points="59.21,357.605 67.516,351 70.502,351.135 57.592,366.477 	"/>
	
		<polyline clip-path="url(#SVGID_2_)" fill="none" stroke="#231F20" stroke-width="0.75" stroke-linecap="round" stroke-linejoin="round" stroke-miterlimit="3.864" points="
		59.21,357.605 67.516,351 70.502,351.135 57.592,366.477 	"/>
	
		<line clip-path="url(#SVGID_2_)" fill="none" stroke="#231F20" stroke-width="0.75" stroke-miterlimit="3.864" x1="57.592" y1="366.477" x2="59.21" y2="357.605"/>
	
		<line clip-path="url(#SVGID_2_)" fill="none" stroke="#231F20" stroke-width="0.75" stroke-miterlimit="3.864" x1="46.297" y1="365.475" x2="45.68" y2="357.605"/>
	
		<line clip-path="url(#SVGID_2_)" fill="none" stroke="#231F20" stroke-width="0.25" stroke-miterlimit="3.864" x1="51.908" y1="2.747" x2="51.908" y2="92.514"/>
	<polygon clip-path="url(#SVGID_2_)" fill-rule="evenodd" clip-rule="evenodd" fill="#FFFFFF" points="78.205,29.043 51.908,2.747 
		25.612,29.043 51.908,92.517 	"/>
	
		<polygon clip-path="url(#SVGID_2_)" fill="none" stroke="#231F20" stroke-width="0.75" stroke-linecap="round" stroke-linejoin="round" stroke-miterlimit="3.864" points="
		78.205,29.043 51.908,2.747 25.612,29.043 51.908,92.517 	"/>
	
		<line clip-path="url(#SVGID_2_)" fill="none" stroke="#231F20" stroke-width="0.25" stroke-miterlimit="3.864" x1="51.908" y1="2.747" x2="51.908" y2="92.514"/>
	<polygon clip-path="url(#SVGID_2_)" fill-rule="evenodd" clip-rule="evenodd" fill="#FFFFFF" points="51.908,92.516 54.184,29.041 
		78.205,29.043 	"/>
	
		<polygon clip-path="url(#SVGID_2_)" fill="none" stroke="#231F20" stroke-width="0.75" stroke-linecap="round" stroke-linejoin="round" stroke-miterlimit="3.864" points="
		51.908,92.516 54.184,29.041 78.205,29.043 	"/>
	<polygon clip-path="url(#SVGID_2_)" fill-rule="evenodd" clip-rule="evenodd" fill="#FFFFFF" points="56.175,93.18 54.184,29.04 
		78.205,29.044 	"/>
	
		<polygon clip-path="url(#SVGID_2_)" fill="none" stroke="#231F20" stroke-width="0.75" stroke-linecap="round" stroke-linejoin="round" stroke-miterlimit="3.864" points="
		56.175,93.18 54.184,29.04 78.205,29.044 	"/>
	<polygon clip-path="url(#SVGID_2_)" fill-rule="evenodd" clip-rule="evenodd" fill="#FFFFFF" points="51.908,92.516 49.634,29.041 
		25.613,29.043 	"/>
	
		<polygon clip-path="url(#SVGID_2_)" fill="none" stroke="#231F20" stroke-width="0.75" stroke-linecap="round" stroke-linejoin="round" stroke-miterlimit="3.864" points="
		51.908,92.516 49.634,29.041 25.613,29.043 	"/>
	<polygon clip-path="url(#SVGID_2_)" fill-rule="evenodd" clip-rule="evenodd" fill="#FFFFFF" points="47.642,93.18 49.632,29.04 
		25.613,29.044 	"/>
	
		<polygon clip-path="url(#SVGID_2_)" fill="none" stroke="#231F20" stroke-width="0.75" stroke-linecap="round" stroke-linejoin="round" stroke-miterlimit="3.864" points="
		47.642,93.18 49.632,29.04 25.613,29.044 	"/>
	<polygon clip-path="url(#SVGID_2_)" fill-rule="evenodd" clip-rule="evenodd" fill="#FFFFFF" points="52.444,350 59.348,356.9 
		45.55,356.896 	"/>
	
		<polygon clip-path="url(#SVGID_2_)" fill="none" stroke="#231F20" stroke-width="0.75" stroke-linecap="round" stroke-linejoin="round" stroke-miterlimit="3.864" points="
		52.444,350 59.348,356.9 45.55,356.896 	"/>
	<polygon clip-path="url(#SVGID_2_)" fill-rule="evenodd" clip-rule="evenodd" fill="#FFFFFF" points="52.444,350 58.642,357.605 
		45.55,356.896 	"/>
	
		<polygon clip-path="url(#SVGID_2_)" fill="none" stroke="#231F20" stroke-width="0.75" stroke-linecap="round" stroke-linejoin="round" stroke-miterlimit="3.864" points="
		52.444,350 58.642,357.605 45.55,356.896 	"/>
	
		<line clip-path="url(#SVGID_2_)" fill="none" stroke="#231F20" stroke-width="0.25" stroke-linecap="round" stroke-linejoin="round" stroke-miterlimit="3.864" x1="52.444" y1="357.109" x2="52.444" y2="350"/>
	<polygon clip-path="url(#SVGID_2_)" fill-rule="evenodd" clip-rule="evenodd" fill="#FFFFFF" points="45.547,356.895 
		41.509,357.934 29.432,368.178 57.591,360.041 58.642,357.605 	"/>
	
		<polygon clip-path="url(#SVGID_2_)" fill="none" stroke="#231F20" stroke-width="0.75" stroke-linecap="round" stroke-linejoin="round" stroke-miterlimit="3.864" points="
		45.547,356.895 41.509,357.934 29.432,368.178 57.591,360.041 58.642,357.605 	"/>
	
		<line clip-path="url(#SVGID_2_)" fill="none" stroke="#231F20" stroke-width="0.25" stroke-linecap="round" stroke-linejoin="round" stroke-miterlimit="3.864" x1="29.433" y1="368.178" x2="52.291" y2="357.074"/>
</g>
</svg>
