<?xml version="1.0" encoding="utf-8"?>
<!-- Generator: Adobe Illustrator 15.0.0, SVG Export Plug-In . SVG Version: 6.00 Build 0)  -->
<!DOCTYPE svg PUBLIC "-//W3C//DTD SVG 1.1//EN" "http://www.w3.org/Graphics/SVG/1.1/DTD/svg11.dtd">
<svg version="1.1" id="Layer_1" xmlns="http://www.w3.org/2000/svg" xmlns:xlink="http://www.w3.org/1999/xlink" x="0px" y="0px"
	 width="100px" height="100px" viewBox="0 0 100 100" enable-background="new 0 0 100 100" xml:space="preserve">
<line fill-rule="evenodd" clip-rule="evenodd" fill="#FFFFFF" x1="64.199" y1="52.75" x2="63.93" y2="54.131"/>
<line fill="none" stroke="#231F20" stroke-width="0.75" stroke-linecap="round" stroke-linejoin="round" stroke-miterlimit="3.864" x1="64.199" y1="52.75" x2="63.93" y2="54.131"/>
<polygon fill="#FFFFFF" points="54.116,63.947 80.167,41.217 86.009,41.482 64.709,70.736 "/>
<polygon fill="none" stroke="#231F20" stroke-width="0.75" stroke-linecap="round" stroke-linejoin="round" stroke-miterlimit="3.864" points="
	54.116,63.947 80.167,41.217 86.009,41.482 64.709,70.736 "/>
<polyline fill-rule="evenodd" clip-rule="evenodd" fill="#FFFFFF" points="60.766,71.475 50.702,64.748 38.685,69.518 2.894,26.625 
	37.477,54.133 63.93,54.133 "/>
<polyline fill="none" stroke="#231F20" stroke-width="0.75" stroke-linecap="round" stroke-linejoin="round" stroke-miterlimit="3.864" points="
	60.766,71.475 50.702,64.748 38.685,69.518 2.894,26.625 37.477,54.133 63.93,54.133 "/>
<line fill="none" stroke="#231F20" stroke-width="0.75" stroke-miterlimit="3.864" x1="37.456" y1="52.703" x2="50.702" y2="56.848"/>
<line fill="none" stroke="#231F20" stroke-width="0.75" stroke-miterlimit="3.864" x1="63.95" y1="52.703" x2="50.704" y2="56.848"/>
<line fill="none" stroke="#231F20" stroke-width="0.75" stroke-miterlimit="3.864" x1="50.702" y1="56.848" x2="50.702" y2="64.748"/>
<polygon fill-rule="evenodd" clip-rule="evenodd" fill="#FFFFFF" points="87.38,39.663 97.105,57.418 80.165,41.213 "/>
<polygon fill="none" stroke="#231F20" stroke-width="0.75" stroke-linecap="round" stroke-linejoin="round" stroke-miterlimit="3.864" points="
	87.38,39.663 97.105,57.418 80.165,41.213 "/>
<polyline fill-rule="evenodd" clip-rule="evenodd" fill="#FFFFFF" points="86.009,41.484 97.105,57.418 80.165,41.213 "/>
<polyline fill="none" stroke="#231F20" stroke-width="0.75" stroke-linecap="round" stroke-linejoin="round" stroke-miterlimit="3.864" points="
	86.009,41.484 97.105,57.418 80.165,41.213 "/>
<polygon fill-rule="evenodd" clip-rule="evenodd" fill="#FFFFFF" points="37.223,52.744 39.058,48.302 80.165,29.036 69.887,50.122 
	64.199,52.75 "/>
<polygon fill="none" stroke="#231F20" stroke-width="0.75" stroke-linecap="round" stroke-linejoin="round" stroke-miterlimit="3.864" points="
	37.223,52.744 39.058,48.302 80.165,29.036 69.887,50.122 64.199,52.75 "/>
<line fill="none" stroke="#231F20" stroke-width="0.25" stroke-linecap="round" stroke-linejoin="round" stroke-miterlimit="3.864" x1="50.702" y1="53.162" x2="80.164" y2="29.036"/>
<polyline fill="#FFFFFF" points="63.93,54.133 80.167,41.217 86.005,41.482 60.766,71.475 "/>
<polyline fill="none" stroke="#231F20" stroke-width="0.75" stroke-linecap="round" stroke-linejoin="round" stroke-miterlimit="3.864" points="
	63.93,54.133 80.167,41.217 86.005,41.482 60.766,71.475 "/>
<line fill="none" stroke="#231F20" stroke-width="0.75" stroke-miterlimit="3.864" x1="60.766" y1="71.475" x2="63.93" y2="54.133"/>
<line fill="none" stroke="#231F20" stroke-width="0.75" stroke-miterlimit="3.864" x1="38.685" y1="69.518" x2="37.478" y2="54.133"/>
<polygon fill-rule="evenodd" clip-rule="evenodd" fill="#FFFFFF" points="50.702,39.264 64.199,52.752 37.224,52.744 "/>
<polygon fill="none" stroke="#231F20" stroke-width="0.75" stroke-linecap="round" stroke-linejoin="round" stroke-miterlimit="3.864" points="
	50.702,39.264 64.199,52.752 37.224,52.744 "/>
<polygon fill-rule="evenodd" clip-rule="evenodd" fill="#FFFFFF" points="50.702,39.264 62.818,54.133 37.224,52.744 "/>
<polygon fill="none" stroke="#231F20" stroke-width="0.75" stroke-linecap="round" stroke-linejoin="round" stroke-miterlimit="3.864" points="
	50.702,39.264 62.818,54.133 37.224,52.744 "/>
<line fill="none" stroke="#231F20" stroke-width="0.25" stroke-linecap="round" stroke-linejoin="round" stroke-miterlimit="3.864" x1="50.702" y1="53.162" x2="50.702" y2="39.264"/>
<polygon fill-rule="evenodd" clip-rule="evenodd" fill="#FFFFFF" points="37.219,52.742 29.324,54.773 5.713,74.801 60.764,58.895 
	62.818,54.133 "/>
<polygon fill="none" stroke="#231F20" stroke-width="0.75" stroke-linecap="round" stroke-linejoin="round" stroke-miterlimit="3.864" points="
	37.219,52.742 29.324,54.773 5.713,74.801 60.764,58.895 62.818,54.133 "/>
<line fill="none" stroke="#231F20" stroke-width="0.25" stroke-linecap="round" stroke-linejoin="round" stroke-miterlimit="3.864" x1="5.714" y1="74.801" x2="50.402" y2="53.092"/>
</svg>
