<?xml version="1.0" encoding="utf-8"?>
<!-- Generator: Adobe Illustrator 15.0.0, SVG Export Plug-In . SVG Version: 6.00 Build 0)  -->
<!DOCTYPE svg PUBLIC "-//W3C//DTD SVG 1.1//EN" "http://www.w3.org/Graphics/SVG/1.1/DTD/svg11.dtd">
<svg version="1.1" id="Layer_1" xmlns="http://www.w3.org/2000/svg" xmlns:xlink="http://www.w3.org/1999/xlink" x="0px" y="0px"
	 width="100px" height="100px" viewBox="0 0 100 100" enable-background="new 0 0 100 100" xml:space="preserve">
<polygon fill-rule="evenodd" clip-rule="evenodd" fill="#FFFFFF" points="50.579,5.773 95.463,50.658 54.847,96.205 "/>
<polygon fill="none" stroke="#231F20" stroke-width="0.75" stroke-linecap="round" stroke-linejoin="round" stroke-miterlimit="3.864" points="
	50.579,5.773 95.463,50.658 54.847,96.205 "/>
<rect x="18.841" y="18.92" transform="matrix(-0.7071 -0.7071 0.7071 -0.7071 50.5231 122.243)" fill-rule="evenodd" clip-rule="evenodd" fill="#FFFFFF" width="63.476" height="63.476"/>
<rect x="18.841" y="18.92" transform="matrix(-0.7071 -0.7071 0.7071 -0.7071 50.5231 122.243)" fill="none" stroke="#231F20" stroke-width="0.75" stroke-linecap="round" stroke-linejoin="round" stroke-miterlimit="3.864" width="63.476" height="63.476"/>
<line fill="none" stroke="#231F20" stroke-width="0.25" stroke-miterlimit="3.864" x1="50.579" y1="5.773" x2="50.579" y2="95.542"/>
<polygon fill-rule="evenodd" clip-rule="evenodd" fill="#FFFFFF" points="50.579,5.773 5.694,50.658 46.311,96.205 "/>
<polygon fill="none" stroke="#231F20" stroke-width="0.75" stroke-linecap="round" stroke-linejoin="round" stroke-miterlimit="3.864" points="
	50.579,5.773 5.694,50.658 46.311,96.205 "/>
<rect x="18.841" y="18.92" transform="matrix(0.7071 -0.7071 0.7071 0.7071 -21.0061 50.6017)" fill-rule="evenodd" clip-rule="evenodd" fill="#FFFFFF" width="63.476" height="63.476"/>
<rect x="18.841" y="18.92" transform="matrix(0.7071 -0.7071 0.7071 0.7071 -21.0061 50.6017)" fill="none" stroke="#231F20" stroke-width="0.75" stroke-linecap="round" stroke-linejoin="round" stroke-miterlimit="3.864" width="63.476" height="63.476"/>
<line fill="none" stroke="#231F20" stroke-width="0.25" stroke-miterlimit="3.864" x1="50.579" y1="5.773" x2="50.579" y2="95.542"/>
</svg>
