<?xml version="1.0" encoding="utf-8"?>
<!-- Generator: Adobe Illustrator 15.0.0, SVG Export Plug-In . SVG Version: 6.00 Build 0)  -->
<!DOCTYPE svg PUBLIC "-//W3C//DTD SVG 1.1//EN" "http://www.w3.org/Graphics/SVG/1.1/DTD/svg11.dtd">
<svg version="1.1" id="Layer_1" xmlns="http://www.w3.org/2000/svg" xmlns:xlink="http://www.w3.org/1999/xlink" x="0px" y="0px"
	 width="100px" height="100px" viewBox="0 0 100 100" enable-background="new 0 0 100 100" xml:space="preserve">
<g>
	<defs>
		<rect id="SVGID_1_" x="-270.767" y="-374.841" width="612" height="792"/>
	</defs>
	<clipPath id="SVGID_2_">
		<use xlink:href="#SVGID_1_"  overflow="visible"/>
	</clipPath>
	<polyline clip-path="url(#SVGID_2_)" fill-rule="evenodd" clip-rule="evenodd" fill="#FFFFFF" points="61.681,77.264 
		52.175,70.912 42.671,77.264 7.013,34.899 39.681,60.881 37.977,51.555 52.175,16.313 66.488,51.555 64.67,60.881 	"/>
	
		<polyline clip-path="url(#SVGID_2_)" fill="none" stroke="#231F20" stroke-width="0.75" stroke-linecap="round" stroke-linejoin="round" stroke-miterlimit="3.864" points="
		61.681,77.264 52.175,70.912 42.671,77.264 7.013,34.899 39.681,60.881 37.977,51.555 52.175,16.313 66.488,51.555 64.67,60.881 	
		"/>
	
		<line clip-path="url(#SVGID_2_)" fill="none" stroke="#231F20" stroke-width="0.75" stroke-miterlimit="3.864" x1="52.175" y1="63.445" x2="52.175" y2="16.315"/>
	
		<line clip-path="url(#SVGID_2_)" fill="none" stroke="#231F20" stroke-width="0.75" stroke-miterlimit="3.864" x1="37.977" y1="51.555" x2="52.175" y2="63.445"/>
	
		<line clip-path="url(#SVGID_2_)" fill="none" stroke="#231F20" stroke-width="0.75" stroke-miterlimit="3.864" x1="66.486" y1="51.555" x2="52.175" y2="63.445"/>
	
		<line clip-path="url(#SVGID_2_)" fill="none" stroke="#231F20" stroke-width="0.75" stroke-miterlimit="3.864" x1="39.662" y1="59.531" x2="52.175" y2="63.445"/>
	
		<line clip-path="url(#SVGID_2_)" fill="none" stroke="#231F20" stroke-width="0.75" stroke-miterlimit="3.864" x1="64.69" y1="59.531" x2="52.177" y2="63.445"/>
	
		<line clip-path="url(#SVGID_2_)" fill="none" stroke="#231F20" stroke-width="0.75" stroke-miterlimit="3.864" x1="52.175" y1="63.445" x2="52.175" y2="70.91"/>
	<polyline clip-path="url(#SVGID_2_)" fill-rule="evenodd" clip-rule="evenodd" fill="#FFFFFF" points="85.526,48.936 
		96.008,63.988 80.008,48.68 	"/>
	
		<polyline clip-path="url(#SVGID_2_)" fill="none" stroke="#231F20" stroke-width="0.75" stroke-linecap="round" stroke-linejoin="round" stroke-miterlimit="3.864" points="
		85.526,48.936 96.008,63.988 80.008,48.68 	"/>
	<polyline clip-path="url(#SVGID_2_)" fill="#FFFFFF" points="64.67,60.881 80.008,48.683 85.522,48.934 61.681,77.264 	"/>
	
		<polyline clip-path="url(#SVGID_2_)" fill="none" stroke="#231F20" stroke-width="0.75" stroke-linecap="round" stroke-linejoin="round" stroke-miterlimit="3.864" points="
		64.67,60.881 80.008,48.683 85.522,48.934 61.681,77.264 	"/>
	
		<line clip-path="url(#SVGID_2_)" fill="none" stroke="#231F20" stroke-width="0.75" stroke-miterlimit="3.864" x1="61.681" y1="77.264" x2="64.67" y2="60.881"/>
	
		<line clip-path="url(#SVGID_2_)" fill="none" stroke="#231F20" stroke-width="0.75" stroke-miterlimit="3.864" x1="42.671" y1="77.264" x2="39.681" y2="60.881"/>
	
		<line clip-path="url(#SVGID_2_)" fill="none" stroke="#231F20" stroke-width="0.25" stroke-miterlimit="3.864" x1="35.233" y1="-112.067" x2="35.233" y2="-72.919"/>
	<polygon clip-path="url(#SVGID_2_)" fill-rule="evenodd" clip-rule="evenodd" fill="#FFFFFF" points="46.701,-100.6 
		35.233,-112.067 23.765,-100.6 35.233,-72.918 	"/>
	
		<polygon clip-path="url(#SVGID_2_)" fill="none" stroke="#231F20" stroke-width="0.75" stroke-linecap="round" stroke-linejoin="round" stroke-miterlimit="3.864" points="
		46.701,-100.6 35.233,-112.067 23.765,-100.6 35.233,-72.918 	"/>
	
		<line clip-path="url(#SVGID_2_)" fill="none" stroke="#231F20" stroke-width="0.25" stroke-miterlimit="3.864" x1="35.233" y1="-112.067" x2="35.233" y2="-72.919"/>
	<polygon clip-path="url(#SVGID_2_)" fill-rule="evenodd" clip-rule="evenodd" fill="#FFFFFF" points="35.233,-72.919 
		36.225,-100.601 46.701,-100.6 	"/>
	
		<polygon clip-path="url(#SVGID_2_)" fill="none" stroke="#231F20" stroke-width="0.75" stroke-linecap="round" stroke-linejoin="round" stroke-miterlimit="3.864" points="
		35.233,-72.919 36.225,-100.601 46.701,-100.6 	"/>
	<polygon clip-path="url(#SVGID_2_)" fill-rule="evenodd" clip-rule="evenodd" fill="#FFFFFF" points="37.093,-72.629 
		36.225,-100.601 46.701,-100.599 	"/>
	
		<polygon clip-path="url(#SVGID_2_)" fill="none" stroke="#231F20" stroke-width="0.75" stroke-linecap="round" stroke-linejoin="round" stroke-miterlimit="3.864" points="
		37.093,-72.629 36.225,-100.601 46.701,-100.599 	"/>
	<polygon clip-path="url(#SVGID_2_)" fill-rule="evenodd" clip-rule="evenodd" fill="#FFFFFF" points="35.233,-72.919 
		34.241,-100.601 23.765,-100.6 	"/>
	
		<polygon clip-path="url(#SVGID_2_)" fill="none" stroke="#231F20" stroke-width="0.75" stroke-linecap="round" stroke-linejoin="round" stroke-miterlimit="3.864" points="
		35.233,-72.919 34.241,-100.601 23.765,-100.6 	"/>
	<polygon clip-path="url(#SVGID_2_)" fill-rule="evenodd" clip-rule="evenodd" fill="#FFFFFF" points="33.372,-72.629 
		34.24,-100.601 23.765,-100.599 	"/>
	
		<polygon clip-path="url(#SVGID_2_)" fill="none" stroke="#231F20" stroke-width="0.75" stroke-linecap="round" stroke-linejoin="round" stroke-miterlimit="3.864" points="
		33.372,-72.629 34.24,-100.601 23.765,-100.599 	"/>
</g>
</svg>
